<svg class="icon" viewBox="0 0 1024 1024" xmlns="http://www.w3.org/2000/svg" width="200" height="200"><defs><style/></defs><path d="M160 608c-17.664 0-32-14.304-32-32V416c0-17.664 14.336-32 32-32s32 14.336 32 32v160c0 17.696-14.336 32-32 32z"/><path d="M864 928H224c-52.928 0-96-42.752-96-95.328V768c0-17.696 14.336-32 32-32s32 14.304 32 32v64.672C192 849.984 206.368 864 224 864h640c17.664 0 32-14.336 32-32V192c0-17.632-14.336-32-32-32H224c-18.56 0-32 10.144-32 17.024V224c0 17.664-14.336 32-32 32s-32-14.336-32-32v-46.976C128 132.352 171.072 96 224 96h640c52.928 0 96 43.072 96 96v640c0 52.928-43.072 96-96 96z"/><path d="M192 352H96c-17.664 0-32-14.336-32-32s14.336-32 32-32h96c17.664 0 32 14.336 32 32s-14.336 32-32 32zm0 352H96c-17.664 0-32-14.304-32-32s14.336-32 32-32h96c17.664 0 32 14.304 32 32s-14.336 32-32 32zm127.456 96.992c-14.56 0-27.712-9.984-31.136-24.736-4-17.216 6.688-34.4 23.936-38.4C316.8 736.8 410.048 715.2 480 707.296v-20.032c-67.136-57.6-96-139.52-96-269.92 0-127.84 64.608-192.672 192-192.672 158.688 0 192 104.416 192 192 0 139.008-66.24 223.2-127.2 271.2l.224 19.84c69.28 8.544 161.504 29.088 165.984 30.08 17.248 3.84 28.096 20.96 24.224 38.208-3.808 17.216-20.704 28.224-38.208 24.224-1.184-.256-121.856-27.168-185.92-31.648-16.64-1.152-29.568-14.912-29.76-31.552l-.672-64.672c-.128-10.464 4.864-20.32 13.408-26.368C642.016 608.8 704 538.848 704 416.672c0-90.912-37.088-128-128-128-92.096 0-128 36.064-128 128.672 0 117.632 24.16 184.032 83.392 229.248C539.328 652.64 544 662.016 544 672v64.672c0 17.088-13.408 31.168-30.464 31.968-63.584 3.04-185.568 31.264-186.784 31.52a31.514 31.514 0 0 1-7.296.832z"/></svg>