<svg class="icon" viewBox="0 0 1024 1024" xmlns="http://www.w3.org/2000/svg" width="200" height="200"><defs><style/></defs><path d="M192 448a2 2 0 1 0 128 0 2 2 0 1 0-128 0z"/><path d="M714.688 256H181.312C116.64 256 64 308.64 64 373.312v405.376C64 843.36 116.64 896 181.312 896h533.376C779.36 896 832 843.36 832 778.688V373.312C832 308.64 779.36 256 714.688 256zM768 778.688C768 808.096 744.096 832 714.688 832H181.312C151.936 832 128 808.096 128 778.688V373.312C128 343.936 151.936 320 181.312 320h533.376C744.096 320 768 343.936 768 373.312v405.376z"/><path d="M842.688 128H256c-17.664 0-32 14.336-32 32s14.336 32 32 32h586.688C872.096 192 896 215.936 896 245.312V640c0 17.696 14.304 32 32 32s32-14.304 32-32V245.312C960 180.64 907.36 128 842.688 128z"/><path d="M672.64 448.736c-129.056 0-143.936 72.672-152.832 116.096-7.2 35.168-10.4 39.968-28.64 42.88-34.976 5.568-44 .192-58.912-8.8-15.456-9.312-36.672-22.08-77.952-23.168-126.688-2.624-160.192 148.096-161.6 154.496-3.712 17.28 7.264 34.304 24.544 38.016 2.272.512 4.544.704 6.752.704 14.752 0 28-10.24 31.264-25.248.224-1.056 23.232-104.032 95.488-104.032.64 0 1.28 0 1.92.032 24.352.608 33.632 6.208 46.496 13.984 24.032 14.464 48.352 25.76 102.08 17.184 64.192-10.272 74.432-60.192 81.184-93.216 8.32-40.512 13.312-64.928 90.144-64.928 17.696 0 32-14.336 32-32s-14.272-32-31.936-32z"/></svg>