<svg class="icon" viewBox="0 0 1024 1024" xmlns="http://www.w3.org/2000/svg" width="200" height="200"><defs><style/></defs><path d="M160 544c-17.664 0-32 14.304-32 32v320c0 17.696 14.336 32 32 32s32-14.304 32-32V576c0-17.696-14.336-32-32-32zm448 0c-17.696 0-32 14.304-32 32v320c0 17.696 14.304 32 32 32s32-14.304 32-32V576c0-17.696-14.304-32-32-32zm256 0c-17.696 0-32 14.304-32 32v320c0 17.696 14.304 32 32 32s32-14.304 32-32V576c0-17.696-14.304-32-32-32zm-576 0c-17.664 0-32 14.304-32 32v224c0 17.696 14.336 32 32 32s32-14.304 32-32V576c0-17.696-14.336-32-32-32zm128 0c-17.664 0-32 14.304-32 32v224c0 17.696 14.336 32 32 32s32-14.304 32-32V576c0-17.696-14.336-32-32-32zm320 0c-17.696 0-32 14.304-32 32v224c0 17.696 14.304 32 32 32s32-14.304 32-32V576c0-17.696-14.304-32-32-32zM160 352c17.664 0 32-14.336 32-32V128c0-17.664-14.336-32-32-32s-32 14.336-32 32v192c0 17.664 14.336 32 32 32zm128 0c17.664 0 32-14.336 32-32V128c0-17.664-14.336-32-32-32s-32 14.336-32 32v192c0 17.664 14.336 32 32 32zm128 0c17.664 0 32-14.336 32-32V128c0-17.664-14.336-32-32-32s-32 14.336-32 32v192c0 17.664 14.336 32 32 32zm192 0c17.696 0 32-14.336 32-32V128c0-17.664-14.304-32-32-32s-32 14.336-32 32v192c0 17.664 14.304 32 32 32zm128 0c17.696 0 32-14.336 32-32V128c0-17.664-14.304-32-32-32s-32 14.336-32 32v192c0 17.664 14.304 32 32 32zm128 0c17.696 0 32-14.336 32-32V128c0-17.664-14.304-32-32-32s-32 14.336-32 32v192c0 17.664 14.304 32 32 32zm64 64H96c-17.664 0-32 14.336-32 32s14.336 32 32 32h832c17.696 0 32-14.336 32-32s-14.304-32-32-32z"/></svg>