<svg class="icon" viewBox="0 0 1024 1024" xmlns="http://www.w3.org/2000/svg" width="200" height="200"><defs><style/></defs><path d="M512 736c-105.888 0-192-86.112-192-192s86.112-192 192-192 192 86.112 192 192-86.112 192-192 192zm0-320c-70.592 0-128 57.408-128 128s57.408 128 128 128 128-57.408 128-128-57.408-128-128-128z"/><path d="M864 896H160c-52.928 0-96-43.072-96-96V288c0-52.928 43.072-96 96-96h96c17.664 0 32 14.336 32 32s-14.336 32-32 32h-96c-17.632 0-32 14.368-32 32v512c0 17.664 14.368 32 32 32h704c17.664 0 32-14.336 32-32V288c0-17.632-14.336-32-32-32H512c-17.664 0-32-14.336-32-32s14.336-32 32-32h352c52.928 0 96 43.072 96 96v512c0 52.928-43.072 96-96 96z"/><path d="M768 336a1.5 1.5 0 1 0 96 0 1.5 1.5 0 1 0-96 0zM480 128c0 17.664-14.336 32-32 32H320c-17.664 0-32-14.336-32-32s14.336-32 32-32h128c17.664 0 32 14.336 32 32z"/></svg>