<svg class="icon" viewBox="0 0 1024 1024" xmlns="http://www.w3.org/2000/svg" width="200" height="200"><defs><style/></defs><path d="M384 480H192c-52.928 0-96-43.072-96-96V192c0-52.928 43.072-96 96-96h192c52.928 0 96 43.072 96 96v192c0 52.928-43.072 96-96 96zM192 160c-17.632 0-32 14.368-32 32v192c0 17.632 14.368 32 32 32h192c17.632 0 32-14.368 32-32V192c0-17.632-14.368-32-32-32H192zm192 768H192c-52.928 0-96-43.072-96-96V640c0-52.928 43.072-96 96-96h192c52.928 0 96 43.072 96 96v192c0 52.928-43.072 96-96 96zM192 608c-17.632 0-32 14.336-32 32v192c0 17.664 14.368 32 32 32h192c17.632 0 32-14.336 32-32V640c0-17.664-14.368-32-32-32H192zm640 320H640c-52.928 0-96-43.072-96-96v-64c0-52.928 43.072-96 96-96h192c52.928 0 96 43.072 96 96v64c0 52.928-43.072 96-96 96zM640 736c-17.664 0-32 14.336-32 32v64c0 17.664 14.336 32 32 32h192c17.664 0 32-14.336 32-32v-64c0-17.664-14.336-32-32-32H640zm192-128H640c-52.928 0-96-43.072-96-96V192c0-52.928 43.072-96 96-96h192c52.928 0 96 43.072 96 96v320c0 52.928-43.072 96-96 96zM640 160c-17.664 0-32 14.368-32 32v320c0 17.632 14.336 32 32 32h192c17.664 0 32-14.368 32-32V192c0-17.632-14.336-32-32-32H640z"/></svg>