<svg class="icon" viewBox="0 0 1024 1024" xmlns="http://www.w3.org/2000/svg" width="200" height="200"><defs><style/></defs><path d="M352 646.4h-38.4V537.6h44.8v108.8m-44.8-268.8h44.8v108.8h-44.8V377.6zM704 531.2h-83.2V544c0 6.4 6.4 6.4 12.8 6.4H704c6.4 0 12.8 6.4 12.8 12.8v19.2c0 6.4-6.4 12.8-12.8 12.8h-70.4c-6.4 0-6.4 6.4-6.4 12.8v51.2c0 6.4 0 6.4-6.4 6.4h-25.6c-6.4 0-12.8-6.4-12.8-12.8v-51.2h-76.8c-6.4 0-12.8-6.4-12.8-12.8v-25.6s6.4-6.4 6.4 0H576v-25.6s0-6.4-12.8-6.4h-70.4v-38.4c6.4 0 6.4-6.4 12.8-6.4h44.8c6.4 0 6.4 0 6.4-6.4 0 0 0-6.4-6.4-19.2-12.8 0-25.6-19.2-32-25.6-12.8-12.8-19.2-25.6-32-38.4-6.4-12.8-6.4-19.2 0-19.2s6.4-6.4 12.8-6.4 6.4-6.4 12.8-6.4c6.4-6.4 12.8 0 19.2 12.8l12.8 12.8c6.4 6.4 12.8 12.8 19.2 25.6 6.4 0 12.8 6.4 19.2 12.8 6.4 6.4 6.4 12.8 6.4 12.8 0 6.4 6.4 6.4 6.4 6.4H608s6.4-6.4 6.4-12.8c6.4-6.4 12.8-12.8 19.2-25.6 6.4-12.8 12.8-19.2 19.2-25.6 6.4-6.4 6.4-12.8 12.8-12.8 6.4-6.4 6.4-6.4 6.4-12.8h12.8c6.4 0 6.4 6.4 12.8 6.4s6.4 6.4 6.4 6.4c6.4 6.4 12.8 12.8 6.4 19.2 0 0-6.4 6.4-12.8 19.2-6.4 6.4-12.8 19.2-19.2 25.6-6.4 12.8-12.8 25.6-19.2 32-6.4 6.4-6.4 12.8-12.8 12.8v6.4H704c6.4 0 6.4 0 6.4 6.4l6.4 6.4v25.6c0 6.4-6.4 6.4-12.8 6.4zm211.2-160v-128H358.4v64h-44.8v-64H108.8v121.6c51.2 32 89.6 83.2 89.6 147.2 0 64-38.4 115.2-89.6 147.2v121.6h204.8v-64h44.8v64h563.2v-128c-57.6-32-96-76.8-96-140.8 0-64 38.4-108.8 89.6-140.8zM960 614.4v140.8c0 38.4-32 70.4-70.4 70.4H134.4c-38.4 0-70.4-32-70.4-70.4V614.4c25.6-6.4 51.2-19.2 70.4-44.8 6.4-12.8 19.2-38.4 19.2-57.6 0-19.2-6.4-38.4-19.2-57.6-19.2-19.2-44.8-38.4-70.4-44.8V268.8c0-38.4 32-70.4 70.4-70.4h755.2c38.4 0 70.4 32 70.4 70.4v140.8c-25.6 6.4-51.2 25.6-64 44.8-6.4 12.8-19.2 32-19.2 51.2 0 19.2 12.8 38.4 19.2 51.2 12.8 32 38.4 51.2 64 57.6z"/></svg>