<svg class="icon" viewBox="0 0 1024 1024" xmlns="http://www.w3.org/2000/svg" width="200" height="200"><defs><style/></defs><path d="M991.232 320.256c0-61.536-50.048-111.584-111.616-111.584S768 258.72 768 320.256c0 52.704 36.8 96.736 86.016 108.384-44.224 88.16-102.656 170.112-133.952 170.112-30.464 0-91.872-88.864-153.984-259.136 44.672-19.648 75.104-63.968 75.104-115.136 0-69.632-56.672-126.272-126.304-126.272-69.664 0-126.336 56.672-126.336 126.272 0 51.296 30.56 95.68 75.36 115.232C397.792 522.88 340.256 590.368 316.64 590.368c-43.872 0-104.8-85.312-144.448-161.76 49.248-11.616 86.112-55.68 86.112-108.416 0-61.536-50.08-111.584-111.616-111.584S35.072 258.656 35.072 320.192c0 42.176 23.808 78.528 58.432 97.504L115.616 863.2a31.952 31.952 0 0 0 14.784 25.408c4.64 2.976 116.704 72.16 384.48 72.16s379.84-69.44 384.48-72.384a32.129 32.129 0 0 0 14.784-25.6l19.712-445.664c34.016-19.04 57.376-55.104 57.376-96.864zm-159.264 0c0-26.24 21.376-47.584 47.616-47.584s47.616 21.344 47.616 47.584c0 26.272-21.376 47.616-47.616 47.616s-47.616-21.344-47.616-47.616zm-379.456-95.744c0-34.336 27.968-62.272 62.336-62.272s62.304 27.936 62.304 62.272c0 31.84-24.064 58.272-56 61.536-2.112.192-4.224.64-6.24 1.28-2.016-.64-4.128-1.056-6.304-1.28-31.968-3.2-56.096-29.664-56.096-61.536zm-305.856 48.16c26.272 0 47.616 21.344 47.616 47.584 0 26.272-21.344 47.616-47.616 47.616S99.04 346.528 99.04 320.256c0-26.24 21.344-47.584 47.616-47.584zm704.32 568.896c-35.68 16.416-140.832 55.296-336.128 55.296-195.584 0-300.8-38.848-336.256-55.136L163.584 539.84c40.16 58.432 94.08 114.56 152.992 114.56 64.864 0 131.52-90.176 198.4-268.256 69.408 183.584 138.272 276.608 205.056 276.608 52.736 0 104.352-58.944 144.192-121.312l-13.248 300.128z"/></svg>