<svg class="icon" viewBox="0 0 1024 1024" xmlns="http://www.w3.org/2000/svg" width="200" height="200"><defs><style/></defs><path d="M352 576H224c-17.664 0-32-14.304-32-32 0-17.664 14.336-32 32-32h96v-96c0-17.664 14.336-32 32-32s32 14.336 32 32v128c0 17.696-14.336 32-32 32zm350.144 90.88c-61.952 0-113.664 43.296-127.296 101.12H451.04c-13.568-57.888-65.344-101.216-127.328-101.216-72.288 0-131.104 58.784-131.104 131.072 0 72.352 58.816 131.232 131.104 131.232 60.384 0 110.848-41.344 125.984-97.056h126.432c15.104 55.712 65.568 96.992 126.016 96.992 72.224 0 131.008-58.784 131.008-131.072S774.368 666.88 702.144 666.88zm-378.4 198.176c-36.992 0-67.104-30.144-67.104-67.232 0-36.96 30.08-67.072 67.104-67.072 36.992 0 67.072 30.08 67.072 67.072 0 37.088-30.08 67.232-67.072 67.232zm378.4-.064c-36.96 0-67.072-30.08-67.072-67.072s30.08-67.072 67.072-67.072c36.928 0 67.008 30.08 67.008 67.072s-30.048 67.072-67.008 67.072z"/><path d="M864.032 96H399.744C355.776 96 320 131.776 320 175.744v92.512L125.344 366.08a33.93 33.93 0 0 0-4 2.4c-36.096 25.376-56 64.96-56 111.52v321.984c0 17.696 14.336 32 32 32s32-14.304 32-32V480c0-25.024 9.088-44.512 27.04-57.888l209.984-105.504c1.44-.704 2.368-1.984 3.648-2.88 1.888-1.312 3.776-2.496 5.312-4.16 1.408-1.536 2.336-3.328 3.424-5.056 1.088-1.728 2.24-3.328 2.976-5.28.8-2.176 1.024-4.416 1.344-6.688.256-1.568.928-2.944.928-4.544V175.744c0-8.672 7.072-15.744 15.744-15.744h464.288C881.664 160 896 174.592 896 192.512V800c0 17.696 14.304 32 32 32s32-14.304 32-32V192.512C960 139.296 916.928 96 864.032 96z"/></svg>