<svg class="icon" viewBox="0 0 1024 1024" xmlns="http://www.w3.org/2000/svg" width="200" height="200"><defs><style/></defs><path d="M544 288c0-52.928-43.072-96-96-96s-96 43.072-96 96 43.072 96 96 96 96-43.072 96-96zm-128 0c0-17.632 14.368-32 32-32s32 14.368 32 32-14.368 32-32 32-32-14.368-32-32zM304 448c-44.096 0-80 35.904-80 80 0 44.128 35.904 80 80 80s80-35.872 80-80c0-44.096-35.904-80-80-80zm0 96c-8.832 0-16-7.168-16-16s7.168-16 16-16 16 7.168 16 16-7.168 16-16 16zm272 192a2 2 0 1 0 128 0 2 2 0 1 0-128 0z"/><path d="M887.84 268.672c39.744-60.672 64.256-113.184 64.224-148.96 0-22.976-9.312-36.928-17.12-44.576-38.08-37.376-110.016-3.2-160.768 25.664-15.328 8.736-20.704 28.288-11.968 43.648 8.736 15.36 28.32 20.704 43.648 11.968 49.408-28.16 73.248-33.088 82.496-33.696-1.504 41.376-95.328 202.432-330.208 433.504-226.368 222.72-398.656 324.672-442.24 325.376.96-11.36 8.768-44.448 58.528-118.688a28.849 28.849 0 0 0 3.232-6.144l2.304-5.92c.256-.64.288-1.344.512-2.016 8.8-10.24 10.816-25.088 3.392-37.248C147.328 651.616 128 582.592 128 512c0-211.744 172.256-384 384-384 59.296 0 116.096 13.12 168.864 39.04 15.936 7.776 35.04 1.184 42.816-14.656 7.776-15.84 1.248-35.008-14.624-42.816C647.424 79.328 581.12 64 512 64 264.96 64 64 264.96 64 512c0 76.064 19.488 150.496 56.064 216.64-.192.576-.64 1.056-.8 1.632C51.168 832.608 35.2 895.68 68.928 928.768 79.936 939.552 94.56 944.352 112 944.352c39.328 0 92.864-24.928 150.08-60.896C336.096 933.408 421.952 960 512 960c247.04 0 448-200.96 448-448 0-87.136-25.088-170.752-72.16-243.328zM512 896c-68.288 0-133.728-17.888-191.84-51.552 128.288-92.256 258.432-218.56 282.848-242.624 89.152-87.712 178.56-187.04 244.64-275.968C879.2 382.592 896 446.112 896 512c0 211.744-172.256 384-384 384z"/></svg>