<svg class="icon" viewBox="0 0 1024 1024" xmlns="http://www.w3.org/2000/svg" width="200" height="200"><defs><style/></defs><path d="M800 960H224c-52.928 0-96-43.072-96-96V224c0-52.928 43.072-96 96-96h448c17.696 0 32 14.336 32 32s-14.304 32-32 32H224c-17.632 0-32 14.368-32 32v640c0 17.664 14.368 32 32 32h576c17.664 0 32-14.336 32-32V352c0-17.664 14.304-32 32-32s32 14.336 32 32v512c0 52.928-43.072 96-96 96z"/><path d="M612 448a31.912 31.912 0 0 1-22.624-9.376c-12.512-12.512-12.512-32.736 0-45.248L907.392 75.36c12.512-12.512 32.736-12.512 45.248 0s12.512 32.736 0 45.248L634.624 438.624C628.384 444.896 620.192 448 612 448zm-132 0H288c-17.664 0-32-14.336-32-32s14.336-32 32-32h192c17.664 0 32 14.336 32 32s-14.336 32-32 32zm192 192H288c-17.664 0-32-14.304-32-32s14.336-32 32-32h384c17.696 0 32 14.304 32 32s-14.304 32-32 32z"/></svg>