<svg class="icon" viewBox="0 0 1024 1024" xmlns="http://www.w3.org/2000/svg" width="200" height="200"><defs><style/></defs><path d="M960.224 829.056L917.536 411.68c-5.664-47.936-46.752-94.656-93.792-106.432l-4.416-.864C807.008 301.28 800 284.96 800 255.872v-64C800 138.944 758.432 96 705.504 96h-32.032C620.544 96 576 131.776 576 175.872v48c0 17.664 14.304 32 32 32s32-14.336 32-32v-48c0-5.504 13.952-15.872 33.472-15.872h32.032C723.168 160 736 174.24 736 191.872v64c0 81.568 42.752 104.288 67.968 110.624l4.032.896c21.28 5.344 43.232 30.016 45.728 51.296L886.368 736H683.232l-9.984-99.552C668.192 585.44 622.336 544 571.072 544h-124.8c-34.208 0-90.752 41.376-95.84 92.448L340.48 736H136.704l20.192-320c2.848-24.288 25.376-56.352 47.392-67.328l12.64-6.72C258.528 321.184 288 271.52 288 223.904v-32C288 174.24 303.776 160 321.408 160h32C371.072 160 384 174.24 384 191.904v60.8C384 307.392 421.312 352 465.408 352h112c17.696 0 32-14.336 32-32s-14.304-32-32-32h-112C462.016 288 448 275.072 448 252.672v-60.8C448 138.944 406.368 96 353.408 96h-32C268.48 96 224 138.944 224 191.904v32c0 23.488-15.584 50.752-35.744 60.832l-13.024 6.72c-41.472 20.672-76.608 71.008-82.208 118.784L66.688 828.576c-3.04 25.728 4.8 51.296 21.408 69.984 16.608 18.656 41.056 29.44 66.976 29.44H292.64c51.264 0 97.12-41.568 102.208-92.576l19.264-192.608c1.536-15.488 25.472-34.816 32.16-34.816h124.8c18.688 0 36.672 16.224 38.528 34.816l19.264 192.672C633.952 886.464 679.808 928 731.072 928h140.8c25.92 0 50.272-10.784 66.912-29.472s24.416-44.256 21.44-69.472zM292.64 864H155.072c-7.744 0-14.528-2.88-19.072-8-4.544-5.088-6.56-12.192-5.472-21.632L132.672 800h201.376l-2.88 29.056C329.312 847.648 311.328 864 292.64 864zm598.336-8c-4.576 5.12-11.36 8-19.104 8h-140.8c-18.656 0-36.672-16.352-38.528-34.944L689.632 800h203.296l3.68 36.096c.896 7.712-1.12 14.816-5.632 19.904z"/></svg>