<svg class="icon" viewBox="0 0 1024 1024" xmlns="http://www.w3.org/2000/svg" width="200" height="200"><defs><style/></defs><path d="M855.467 413.867C849.067 230.4 699.733 85.333 514.133 85.333c-183.466 0-332.8 145.067-341.333 328.534-51.2 14.933-87.467 64-87.467 119.466 0 64 46.934 115.2 106.667 125.867v106.667c0 59.733 46.933 106.666 106.667 106.666V915.2c0 12.8 8.533 21.333 21.333 21.333S341.333 928 341.333 915.2v-42.667h341.334V915.2c0 12.8 8.533 21.333 21.333 21.333S725.333 928 725.333 915.2v-42.667h19.2c59.734 0 106.667-49.066 106.667-106.666V652.8c51.2-17.067 87.467-66.133 87.467-121.6 0-51.2-34.134-98.133-83.2-117.333zM514.133 128c157.867 0 288 123.733 298.667 279.467-70.4 0-125.867 55.466-128 125.866v192H341.333v-192c0-68.266-55.466-125.866-123.733-128C226.133 251.733 356.267 128 514.133 128zm313.6 490.667c-6.4 2.133-12.8 6.4-14.933 10.666 0 4.267-2.133 6.4-2.133 10.667v128c0 36.267-29.867 64-64 64h-448c-36.267 0-64-29.867-64-64V640c0-12.8-8.534-21.333-21.334-21.333-46.933 0-85.333-38.4-85.333-85.334S166.4 448 213.333 448s85.334 38.4 85.334 85.333v213.334c0 12.8 8.533 21.333 21.333 21.333h384c12.8 0 21.333-8.533 21.333-21.333V533.333c0-46.933 38.4-85.333 85.334-85.333S896 486.4 896 533.333c0 40.534-27.733 76.8-68.267 85.334z"/><path d="M407.467 661.333H620.8c12.8 0 21.333-8.533 21.333-21.333s-8.533-21.333-21.333-21.333H407.467c-12.8 0-21.334 8.533-21.334 21.333s8.534 21.333 21.334 21.333z"/></svg>