<svg class="icon" viewBox="0 0 1024 1024" xmlns="http://www.w3.org/2000/svg" width="200" height="200"><defs><style/></defs><path d="M682.67 284.447a28.447 28.447 0 0 0 0-56.894H540.447v-85.33H682.67a28.447 28.447 0 0 0 0-56.893H540.447V28.447a28.447 28.447 0 0 0-56.894 0V628.05c-96.317 13.875-170.67 96.747-170.67 196.843C312.893 934.666 402.227 1024 512 1024s199.107-89.334 199.107-199.107c0-100.096-74.343-182.958-170.67-196.843V284.447zm-28.447 540.446c0 78.418-63.805 142.224-142.223 142.224S369.777 903.3 369.777 824.893 433.582 682.67 512 682.67s142.223 63.826 142.223 142.223z"/></svg>