<svg class="icon" viewBox="0 0 1024 1024" xmlns="http://www.w3.org/2000/svg" width="200" height="200"><defs><style/></defs><path d="M512 608c-105.888 0-192-86.112-192-192s86.112-192 192-192 192 86.112 192 192-86.112 192-192 192zm0-320c-70.592 0-128 57.408-128 128s57.408 128 128 128 128-57.408 128-128-57.408-128-128-128z"/><path d="M512 960c-7.936 0-15.904-2.944-22.08-8.832-12.768-12.224-13.248-32.48-1.056-45.248C575.392 815.2 800 550.336 800 416c0-158.784-129.184-288-288-288-158.784 0-288 129.216-288 288 0 75.616 72.544 206.08 204.256 367.424 11.2 13.728 9.152 33.888-4.544 45.024-13.696 11.168-33.888 9.152-45.024-4.544C233.568 646.176 160 508.928 160 416c0-194.08 157.92-352 352-352s352 157.92 352 352c0 187.36-315.424 520.032-328.832 534.08A31.952 31.952 0 0 1 512 960z"/></svg>