<svg class="icon" viewBox="0 0 1024 1024" xmlns="http://www.w3.org/2000/svg" width="200" height="200"><defs><style/></defs><path d="M736 992H288c-52.928 0-96-43.072-96-96V128c0-52.928 43.072-96 96-96h448c52.928 0 96 43.072 96 96v768c0 52.928-43.072 96-96 96zM288 96c-17.632 0-32 14.368-32 32v768c0 17.664 14.368 32 32 32h448c17.664 0 32-14.336 32-32V128c0-17.632-14.336-32-32-32H288z"/><path d="M512 896.416c-35.296 0-64-28.704-64-64s28.704-64 64-64 64 28.704 64 64-28.704 64-64 64zm.032-64s-.064 0-.064.032l.032 31.968.032-32zM704 736H320c-17.664 0-32-14.304-32-32V160c0-17.664 14.336-32 32-32h384c17.696 0 32 14.336 32 32v544c0 17.696-14.304 32-32 32zm-352-64h320V192H352v480z"/></svg>