<svg class="icon" viewBox="0 0 1024 1024" xmlns="http://www.w3.org/2000/svg" width="200" height="200"><defs><style/></defs><path d="M800 352c0-157.867-128-288-288-288S224 194.133 224 352c0 117.333 70.4 219.733 172.8 264.533C266.667 659.2 160 770.133 125.867 913.067c-2.134 10.666 4.266 23.466 14.933 25.6h4.267c10.666 0 19.2-6.4 21.333-17.067C204.8 759.467 349.867 640 509.867 640H512c160 0 288-130.133 288-288zm-533.333 0c0-134.4 110.933-245.333 245.333-245.333S757.333 217.6 757.333 352 646.4 597.333 512 597.333 266.667 486.4 266.667 352zm627.2 561.067c-23.467-96-78.934-179.2-157.867-234.667l-21.333-14.933c-10.667-6.4-23.467-4.267-29.867 6.4-6.4 10.666-4.267 23.466 6.4 29.866l21.333 14.934c70.4 49.066 121.6 123.733 140.8 211.2 2.134 10.666 10.667 17.066 21.334 17.066h4.266c10.667-6.4 17.067-17.066 14.934-29.866z"/></svg>