<svg class="icon" viewBox="0 0 1024 1024" xmlns="http://www.w3.org/2000/svg" width="200" height="200"><defs><style/></defs><path d="M963.072 446.336c0-211.744-200.96-384-448-384s-448 172.256-448 384c0 116.48 63.008 226.048 172.896 300.672 14.656 9.984 34.528 6.144 44.448-8.512 9.952-14.624 6.112-34.528-8.512-44.448-92.032-62.496-144.832-152.768-144.832-247.712 0-176.448 172.256-320 384-320s384 143.552 384 320-172.256 320-384 320c-1.984 0-3.68.768-5.568 1.12-15.104-2.688-30.464 5.216-35.776 20.192-6.144 17.376-46.368 46.656-94.144 73.792 17.472-58.208 9.088-70.688 3.52-78.976a36.034 36.034 0 0 0-29.92-15.936c-17.664 0-32 14.304-32 32 0 5.824 1.536 11.264 4.256 15.936-3.232 18.24-17.216 60.864-33.088 99.872-4.928 12.096-1.984 25.984 7.36 35.072a32.049 32.049 0 0 0 22.272 8.992c4.384 0 8.8-.896 12.992-2.752 36.48-16.256 147.68-69.12 187.616-125.664 243.552-3.488 440.48-174.08 440.48-383.648z"/><path d="M342.624 604.544a31.825 31.825 0 0 0 14.592 3.52c11.616 0 22.816-6.336 28.512-17.408l71.584-139.488 91.584 142.208a32.054 32.054 0 0 0 26.464 14.688h.448c10.56 0 20.48-5.216 26.432-13.984l128.8-188.864c9.984-14.624 6.176-34.528-8.416-44.48-14.624-9.952-34.528-6.208-44.48 8.416L576.512 518.144l-95.456-148.288c-6.176-9.6-17.152-14.752-28.48-14.656-11.424.576-21.696 7.2-26.912 17.344L328.768 561.44c-8.096 15.744-1.888 35.04 13.856 43.104z"/></svg>