<svg class="icon" viewBox="0 0 1024 1024" xmlns="http://www.w3.org/2000/svg" width="200" height="200"><defs><style/></defs><path d="M928 288H780.8l54.4-51.2c19.2-19.2 28.8-44.8 28.8-73.6 0-25.6-9.6-51.2-28.8-70.4C816 73.6 790.4 64 764.8 64c-25.6 0-51.2 9.6-70.4 28.8L588.8 198.4c-12.8 12.8-12.8 32 0 44.8 12.8 12.8 32 12.8 44.8 0l105.6-105.6c6.4-6.4 16-9.6 25.6-9.6 9.6 0 19.2 3.2 25.6 9.6 6.4 9.6 9.6 16 9.6 25.6s-3.2 19.2-9.6 25.6L691.2 288H524.8L329.6 92.8C310.4 73.6 284.8 64 259.2 64c-25.6 0-51.2 9.6-70.4 28.8S160 137.6 160 163.2c0 28.8 9.6 54.4 28.8 73.6l54.4 51.2H96c-19.2 0-32 12.8-32 32v163.2c0 19.2 12.8 32 32 32v313.6c0 54.4 41.6 99.2 92.8 99.2h646.4c51.2 0 96-44.8 96-102.4V512c16 0 32-16 32-32V320c-3.2-19.2-16-32-35.2-32zm-32 163.2H544V352h352v99.2zM233.6 188.8c-6.4-6.4-9.6-16-9.6-25.6 0-9.6 3.2-19.2 9.6-25.6s16-9.6 25.6-9.6c9.6 0 19.2 3.2 25.6 9.6L435.2 288H332.8l-99.2-99.2zM480 352v99.2H128V352h352zM188.8 864c-16 0-28.8-19.2-28.8-38.4V512h320v352H188.8zm646.4 0H544V515.2h320v313.6c0 16-12.8 35.2-28.8 35.2z" fill="#60646D"/></svg>