<svg class="icon" viewBox="0 0 1024 1024" xmlns="http://www.w3.org/2000/svg" width="200" height="200"><defs><style/></defs><path d="M512 960C264.96 960 64 759.04 64 512S264.96 64 512 64s448 200.96 448 448-200.96 448-448 448zm0-832c-211.744 0-384 172.256-384 384s172.256 384 384 384 384-172.256 384-384-172.256-384-384-384z"/><path d="M290.368 524.352c.032.128.192.256.256.384 1.536 3.616 3.648 7.072 6.592 10.048.032.032.064.032.096.064s.032.064.064.096l158.912 159.36c12.48 12.512 32.704 12.576 45.248.064 12.512-12.48 12.544-32.704.064-45.248L398.272 545.504h305.056c17.664 0 32-14.336 32-32s-14.336-32-32-32H396.576l106.112-104.96c12.576-12.448 12.672-32.672.256-45.248-6.24-6.336-14.496-9.504-22.752-9.504-8.128 0-16.256 3.104-22.496 9.248L297.44 489.536c-9.44 9.376-11.808 23.168-7.072 34.816z"/></svg>