<svg class="icon" viewBox="0 0 1024 1024" xmlns="http://www.w3.org/2000/svg" width="200" height="200"><defs><style/></defs><path d="M512 960C264.96 960 64 759.04 64 512S264.96 64 512 64s448 200.96 448 448-200.96 448-448 448zm0-832c-211.744 0-384 172.256-384 384s172.256 384 384 384 384-172.256 384-384-172.256-384-384-384z"/><path d="M732.96 501.152c-.032-.128-.192-.256-.256-.384-1.536-3.616-3.648-7.072-6.592-10.048-.032-.032-.064-.032-.096-.064s-.032-.064-.064-.096L567.04 331.2c-12.48-12.48-32.704-12.576-45.248-.064-12.512 12.48-12.544 32.736-.064 45.248L625.056 480H320c-17.664 0-32 14.336-32 32s14.336 32 32 32h306.752L520.64 648.96c-12.576 12.448-12.672 32.672-.256 45.248 6.24 6.336 14.496 9.504 22.752 9.504 8.128 0 16.256-3.104 22.496-9.248l160.256-158.496c9.44-9.376 11.84-23.2 7.072-34.816z"/></svg>