<svg class="icon" viewBox="0 0 1024 1024" xmlns="http://www.w3.org/2000/svg" width="200" height="200"><defs><style/></defs><path d="M419.2 160v256h-256V160h256m0-64h-256c-35.2 0-64 28.8-64 64v256c0 35.2 28.8 64 64 64h256c35.2 0 64-28.8 64-64V160c0-35.2-28.8-64-64-64zm480 64v256h-256V160h256m0-64h-256c-35.2 0-64 28.8-64 64v256c0 35.2 28.8 64 64 64h256c35.2 0 64-28.8 64-64V160c0-35.2-28.8-64-64-64zm-480 512v256h-256V608h256m0-64h-256c-35.2 0-64 28.8-64 64v256c0 35.2 28.8 64 64 64h256c35.2 0 64-28.8 64-64V608c0-35.2-28.8-64-64-64zm192 352c-19.2 0-32-12.8-32-32V608c0-19.2 12.8-32 32-32s32 12.8 32 32v256c0 16-16 32-32 32zm156.8 0c-19.2 0-32-12.8-32-32V608c0-19.2 12.8-32 32-32s32 12.8 32 32v256c0 16-16 32-32 32zm163.2 0c-19.2 0-32-12.8-32-32V608c0-19.2 12.8-32 32-32s32 12.8 32 32v256c0 16-16 32-32 32z" fill="#666"/></svg>