<svg class="icon" viewBox="0 0 1024 1024" xmlns="http://www.w3.org/2000/svg" width="200" height="200"><defs><style/></defs><path d="M438.202 76.944H121.01c-21.869 0-39.661 17.789-39.661 39.656v317.196c0 21.866 17.791 39.656 39.661 39.656h317.192c21.866 0 39.656-17.79 39.656-39.656V116.6c-.001-21.867-17.79-39.656-39.656-39.656zm5.12 356.852a5.125 5.125 0 0 1-5.12 5.12H121.011a5.127 5.127 0 0 1-5.123-5.12V116.6a5.127 5.127 0 0 1 5.123-5.12h317.192a5.125 5.125 0 0 1 5.12 5.12v317.196z"/><path d="M334.733 195.019H224.475c-13.813 0-25.05 11.237-25.05 25.05v110.258c0 13.815 11.237 25.055 25.05 25.055h110.258c13.815 0 25.055-11.24 25.055-25.055V220.069c.001-13.813-11.239-25.05-25.055-25.05zm-9.482 125.826h-91.289v-91.289h91.289v91.289zM334.733 665.381H224.475c-13.813 0-25.05 11.24-25.05 25.055v110.258c0 13.812 11.237 25.05 25.05 25.05h110.258c13.815 0 25.055-11.238 25.055-25.05V690.436c.001-13.815-11.239-25.055-25.055-25.055zm-9.482 125.825h-91.289v-91.289h91.289v91.289zM687.429 355.381h110.258c13.815 0 25.055-11.24 25.055-25.055V220.068c0-13.813-11.24-25.05-25.055-25.05H687.429c-13.812 0-25.05 11.237-25.05 25.05v110.258c0 13.815 11.238 25.055 25.05 25.055zm9.486-125.825h91.289v91.289h-91.289v-91.289z"/><path d="M438.202 544.283H121.01c-21.869 0-39.661 17.79-39.661 39.656v317.196c0 21.867 17.791 39.657 39.661 39.657h317.192c21.866 0 39.656-17.79 39.656-39.657V583.939c-.001-21.866-17.79-39.656-39.656-39.656zm5.12 356.853a5.126 5.126 0 0 1-5.12 5.121H121.011a5.128 5.128 0 0 1-5.123-5.121V583.94a5.128 5.128 0 0 1 5.123-5.12h317.192a5.126 5.126 0 0 1 5.12 5.12v317.196zM585.922 545.541c-21.867 0-39.657 17.792-39.657 39.662v182.483c0 9.537 7.732 17.269 17.269 17.269s17.269-7.732 17.269-17.269V585.203a5.13 5.13 0 0 1 5.121-5.125h192.024c9.537 0 17.269-7.732 17.269-17.269s-7.732-17.269-17.269-17.269H585.924zM583.96 473.453h317.196c21.867 0 39.657-17.79 39.657-39.656V116.601c0-21.866-17.79-39.656-39.657-39.656H583.96c-21.866 0-39.656 17.789-39.656 39.656v317.196c0 21.866 17.79 39.656 39.656 39.656zM578.84 116.6a5.126 5.126 0 0 1 5.12-5.12h317.196a5.126 5.126 0 0 1 5.121 5.12v317.196a5.126 5.126 0 0 1-5.121 5.12H583.96a5.127 5.127 0 0 1-5.12-5.12V116.6zM941.072 562.809c0-9.537-7.732-17.269-17.269-17.269h-63.285c-9.537 0-17.269 7.732-17.269 17.269s7.732 17.269 17.269 17.269h46.017v66.571H762.976c-9.537 0-17.269 7.732-17.269 17.269s7.732 17.269 17.269 17.269h160.827c9.537 0 17.269-7.732 17.269-17.269 0-.072-.009-.142-.01-.214.001-.072.01-.141.01-.214V562.81zM622.814 906.822h-42.013v-48.086c0-9.537-7.732-17.269-17.269-17.269s-17.269 7.732-17.269 17.269v65.355c0 9.537 7.732 17.269 17.269 17.269h59.281c9.537 0 17.269-7.732 17.269-17.269s-7.732-17.269-17.269-17.269zM813.922 772.963c0-9.537-7.732-17.269-17.269-17.269H687.554c-9.537 0-17.269 7.732-17.269 17.269v152.826c0 9.537 7.732 17.269 17.269 17.269s17.269-7.732 17.269-17.269V790.232h91.831c9.537 0 17.269-7.732 17.269-17.269zM923.62 710.211c-9.537 0-17.269 7.732-17.269 17.269v182.157H750.072c-9.537 0-17.269 7.732-17.269 17.269s7.732 17.269 17.269 17.269h173.547c9.537 0 17.269-7.732 17.269-17.269V727.48c0-9.537-7.731-17.269-17.269-17.269z"/><path d="M646.98 616.644c-9.537 0-17.269 7.732-17.269 17.269v56.128c0 9.537 7.732 17.269 17.269 17.269s17.269-7.732 17.269-17.269v-56.128c0-9.537-7.732-17.269-17.269-17.269z"/></svg>