<svg class="icon" viewBox="0 0 1024 1024" xmlns="http://www.w3.org/2000/svg" width="200" height="200"><defs><style/></defs><path d="M985.984 589.984c-10.304-14.304-30.272-17.568-44.672-7.296l-56.928 40.992c9.856-35.872 15.04-73.024 15.04-110.72 0-229.952-187.104-417.024-417.056-417.024-229.984 0-417.056 187.072-417.056 417.024s187.104 417.024 417.056 417.024c72.736 0 144-19.104 206.688-55.008 3.36-.672 6.688-1.76 9.824-3.616a418.288 418.288 0 0 0 51.168-35.936c13.632-11.264 15.584-31.392 4.384-45.056-11.264-13.632-31.36-15.616-45.056-4.384-12.544 10.304-26.08 19.616-40.064 28.16-2.144.704-4.352 1.024-6.368 2.24-54.368 32.448-116.8 49.6-180.544 49.6-194.656 0-353.056-158.368-353.056-353.024S287.68 159.936 482.368 159.936 835.392 318.304 835.392 512.96c0 44.16-8.192 87.552-24 128.192l-45.28-108.704c-6.816-16.352-25.568-23.968-41.856-17.248-16.32 6.784-24.032 25.536-17.216 41.856l72 172.864c.736 1.824 1.888 3.328 2.944 4.96.288.448.32.96.64 1.408.096.16.288.192.384.352 2.752 3.648 6.24 6.496 10.208 8.704.704.384 1.344.768 2.08 1.088 3.328 1.536 6.848 2.72 10.624 3.04.64.064 1.216-.096 1.856-.064.32 0 .576.192.832.192.672 0 1.312-.256 1.984-.32 2.4-.096 4.736-.448 7.008-1.056.512-.16.96-.352 1.44-.512a31.131 31.131 0 0 0 7.296-3.648c.32-.224.672-.288.96-.512l151.392-108.96c14.336-10.272 17.6-30.272 7.296-44.608z"/><path d="M606.752 374.496c12.672-12.288 13.024-32.544.736-45.248-12.288-12.672-32.512-13.056-45.248-.736l-79.744 77.12-79.744-77.12c-12.704-12.288-32.992-11.968-45.248.736-12.288 12.704-11.968 32.96.736 45.248L448 461.28V480h-64c-17.664 0-32 14.336-32 32s14.336 32 32 32h64v32h-64c-17.664 0-32 14.304-32 32s14.336 32 32 32h64v67.264c0 17.696 14.336 32 32 32s32-14.304 32-32V640h64c17.696 0 32-14.304 32-32s-14.304-32-32-32h-64v-32h64c17.696 0 32-14.336 32-32s-14.304-32-32-32h-64v-13.888l94.752-91.616z"/></svg>