<svg class="icon" viewBox="0 0 1024 1024" xmlns="http://www.w3.org/2000/svg" width="200" height="200"><defs><style/></defs><path d="M512 960C264.96 960 64 759.04 64 512S264.96 64 512 64s448 200.96 448 448-200.96 448-448 448zm0-831.712c-211.584 0-383.712 172.128-383.712 383.712 0 211.552 172.128 383.712 383.712 383.712 211.552 0 383.712-172.16 383.712-383.712 0-211.584-172.16-383.712-383.712-383.712z"/><path d="M557.056 513.376l138.368-136.864c12.576-12.416 12.672-32.672.256-45.248s-32.704-12.672-45.248-.256l-138.56 137.024-136.448-136.864c-12.512-12.512-32.736-12.576-45.248-.064-12.512 12.48-12.544 32.736-.064 45.248l136.256 136.672-137.376 135.904c-12.576 12.448-12.672 32.672-.256 45.248a31.884 31.884 0 0 0 22.752 9.504c8.128 0 16.256-3.104 22.496-9.248l137.568-136.064L650.24 697.504c6.24 6.272 14.432 9.408 22.656 9.408a31.94 31.94 0 0 0 22.592-9.344c12.512-12.48 12.544-32.704.064-45.248L557.056 513.376z"/></svg>