<svg class="icon" viewBox="0 0 1024 1024" xmlns="http://www.w3.org/2000/svg" width="200" height="200"><defs><style/></defs><path d="M512 960C264.96 960 64 759.04 64 512S264.96 64 512 64s448 200.96 448 448-200.96 448-448 448zm0-831.712c-211.584 0-383.712 172.128-383.712 383.712 0 211.552 172.128 383.712 383.712 383.712 211.552 0 383.712-172.16 383.712-383.712 0-211.584-172.16-383.712-383.712-383.712z"/><path d="M726.976 393.184c-12.544-12.448-32.832-12.32-45.248.256l-233.28 235.84-103.264-106.112c-12.352-12.704-32.608-12.928-45.248-.64-12.672 12.32-12.96 32.608-.64 45.248L425.312 697.28c.064.096.192.096.256.192.064.064.096.192.16.256 2.016 1.984 4.512 3.2 6.88 4.544 1.248.672 2.24 1.792 3.52 2.304 3.872 1.6 8 2.4 12.096 2.4 4.064 0 8.128-.8 11.968-2.336 1.248-.512 2.208-1.536 3.392-2.176 2.4-1.344 4.896-2.528 6.944-4.544.064-.064.096-.192.192-.256.064-.096.16-.128.256-.192L727.2 438.464c12.448-12.608 12.32-32.864-.224-45.28z"/></svg>