<svg class="icon" viewBox="0 0 1024 1024" xmlns="http://www.w3.org/2000/svg" width="200" height="200"><defs><style/></defs><path d="M954.4 813.952L816.736 633.664c48.832-46.656 79.456-112.224 79.456-184.928 0-141.152-114.848-256-256-256s-256 114.848-256 256 114.848 256 256 256c45.472 0 88.096-12.032 125.152-32.896l138.144 180.928c6.304 8.256 15.808 12.608 25.472 12.608 6.752 0 13.6-2.112 19.36-6.56 14.112-10.752 16.8-30.848 6.08-44.864zM448.224 448.704c0-105.888 86.112-192 192-192s192 86.112 192 192-86.112 192-192 192-192-86.112-192-192zM320 320H128c-17.664 0-32-14.336-32-32s14.336-32 32-32h192c17.664 0 32 14.336 32 32s-14.336 32-32 32zm-64 256H128c-17.664 0-32-14.304-32-32 0-17.664 14.336-32 32-32h128c17.664 0 32 14.336 32 32 0 17.696-14.336 32-32 32zm224 224H128c-17.664 0-32-14.304-32-32s14.336-32 32-32h352c17.664 0 32 14.304 32 32s-14.336 32-32 32z"/></svg>