<svg class="icon" viewBox="0 0 1024 1024" xmlns="http://www.w3.org/2000/svg" width="200" height="200"><defs><style/></defs><path d="M287.008 512h-62.016c-17.664 0-32-14.336-32-32s14.336-32 32-32h62.016c17.664 0 32 14.336 32 32s-14.336 32-32 32z"/><path d="M882.624 128H141.44C98.72 128 64 162.688 64 205.376v621.12c0 38.304 31.936 69.472 71.168 69.472h753.696c39.264 0 71.168-31.168 71.168-69.472v-621.12C960 162.688 925.28 128 882.624 128zM896 205.376V336.48H672.512V192h210.112c7.36 0 13.376 6.016 13.376 13.376zM446.688 192h161.824v360.448l-70.784-28.224a31.788 31.788 0 0 0-24 .128l-67.04 27.52V192zM128 205.376c0-7.36 6.016-13.376 13.44-13.376h241.248v144.48H128V205.376zm760.832 626.592H135.168c-4.224 0-7.168-2.88-7.168-5.472V400.48h254.688v199.168a32.046 32.046 0 0 0 14.176 26.592 32.212 32.212 0 0 0 17.824 5.408c4.096 0 8.256-.768 12.16-2.4l99.232-40.736 102.592 40.864c9.856 3.968 21.024 2.72 29.824-3.232a32.05 32.05 0 0 0 14.016-26.496V400.48H896v426.016c0 2.592-2.944 5.472-7.168 5.472z"/></svg>