<svg class="icon" viewBox="0 0 1024 1024" xmlns="http://www.w3.org/2000/svg" width="200" height="200"><defs><style/></defs><path d="M808.533 565.333c4.267-10.666 0-23.466-10.666-27.733-10.667-4.267-23.467 0-27.734 10.667-17.066 34.133-78.933 53.333-172.8 51.2-12.8 0-21.333 8.533-21.333 21.333s8.533 21.333 21.333 21.333h8.534c110.933 0 179.2-25.6 202.666-76.8z"/><path d="M861.867 443.733L825.6 428.8C817.067 262.4 680.533 128 512 128c-170.667 0-309.333 136.533-313.6 305.067L179.2 448c-6.4 2.133-8.533 8.533-8.533 14.933v91.734c0 12.8 8.533 21.333 21.333 21.333s21.333-8.533 21.333-21.333v-78.934l19.2-14.933c4.267-4.267 8.534-10.667 8.534-17.067 0-151.466 121.6-273.066 270.933-273.066s270.933 121.6 270.933 270.933c0 8.533 4.267 17.067 12.8 19.2L832 475.733v78.934c0 12.8 8.533 21.333 21.333 21.333s21.334-8.533 21.334-21.333v-91.734c0-8.533-4.267-14.933-12.8-19.2z"/><path d="M512 640c-106.667 0-192-85.333-192-192s85.333-192 192-192 192 85.333 192 192c0 12.8-2.133 27.733-4.267 40.533C697.6 499.2 704 512 716.8 514.133c10.667 2.134 23.467-4.266 25.6-17.066 4.267-14.934 4.267-32 4.267-49.067C746.667 320 640 213.333 512 213.333S277.333 320 277.333 448c0 89.6 51.2 168.533 125.867 206.933-119.467 32-204.8 119.467-228.267 236.8C172.8 902.4 179.2 915.2 192 917.333h4.267c10.666 0 19.2-6.4 21.333-17.066C241.067 768 354.133 684.8 512 684.8c12.8 0 21.333-8.533 21.333-21.333S522.667 640 512 640zm226.133 46.933c-8.533-6.4-23.466-6.4-29.866 4.267-6.4 8.533-6.4 23.467 4.266 29.867 44.8 34.133 102.4 93.866 119.467 179.2 2.133 10.666 10.667 17.066 21.333 17.066h4.267c10.667-2.133 19.2-12.8 17.067-25.6-21.334-98.133-85.334-166.4-136.534-204.8z"/></svg>