<svg class="icon" viewBox="0 0 1024 1024" xmlns="http://www.w3.org/2000/svg" width="200" height="200"><defs><style/></defs><path d="M874.667 620.8c-12.8 0-21.334 8.533-21.334 21.333v200.534c0 17.066-14.933 32-32 32H202.667c-17.067 0-32-14.934-32-32V642.133c0-12.8-8.534-21.333-21.334-21.333S128 629.333 128 642.133v200.534c0 40.533 34.133 74.666 74.667 74.666h618.666c40.534 0 74.667-34.133 74.667-74.666V642.133c0-12.8-8.533-21.333-21.333-21.333zm87.466-258.133c0-4.267 0-8.534-2.133-12.8L849.067 140.8C846.933 132.267 838.4 128 832 128H172.8c-8.533 0-17.067 6.4-19.2 12.8L66.133 354.133C64 358.4 64 360.533 64 364.8v72.533C64 514.133 128 576 204.8 576h40.533c49.067 0 91.734-23.467 117.334-61.867C388.267 550.4 435.2 576 492.8 576h44.8c55.467 0 102.4-25.6 128-66.133 25.6 38.4 68.267 64 117.333 64h40.534c76.8 0 138.666-61.867 138.666-138.667v-72.533zm-774.4-192H819.2l89.6 170.666H117.333l70.4-170.666zM823.467 531.2h-40.534c-53.333 0-96-42.667-96-96 0-12.8-8.533-21.333-21.333-21.333s-21.333 8.533-21.333 21.333v10.667c0 46.933-46.934 87.466-106.667 87.466h-44.8c-59.733 0-106.667-34.133-106.667-81.066 0-2.134 0-4.267-2.133-6.4v-2.134c0-12.8-8.533-21.333-21.333-21.333s-21.334 8.533-21.334 21.333c0 51.2-42.666 91.734-96 91.734H204.8c-53.333-2.134-98.133-44.8-98.133-98.134V384h812.8v51.2c0 53.333-42.667 96-96 96z" fill="#666"/></svg>