<svg class="icon" viewBox="0 0 1027 1024" xmlns="http://www.w3.org/2000/svg" width="200.586" height="200"><defs><style/></defs><path d="M793.149 864.08H41.269C18.056 864.08 0 839.578 0 818.943V184.423c0-21.924 19.345-42.559 41.27-42.559h87.697c14.187 0 25.794 11.607 25.794 25.793s-11.607 25.794-25.794 25.794h-77.38v619.043H786.7V644.836c0-14.186 11.607-25.793 25.794-25.793s25.793 11.607 25.793 25.793v174.106c0 21.924-23.214 45.139-45.138 45.139zM812.494 335.315c-14.187 0-25.794-11.607-25.794-25.794v-116.07h-77.38c-14.186 0-25.794-11.607-25.794-25.794s11.608-25.793 25.794-25.793h83.829c20.634 0 45.138 19.345 45.138 42.56V309.52c0 14.187-11.607 25.794-25.793 25.794zM528.766 193.45H296.625c-14.187 0-25.794-11.606-25.794-25.793s11.607-25.793 25.794-25.793h232.14c14.187 0 25.794 11.607 25.794 25.793s-11.607 25.794-25.793 25.794z"/><path d="M219.244 257.935c-14.186 0-25.793-11.608-25.793-25.794V103.174c0-14.187 11.607-25.794 25.793-25.794s25.794 11.607 25.794 25.794V232.14c0 14.186-11.607 25.794-25.794 25.794zM619.043 257.935c-14.187 0-25.794-11.608-25.794-25.794V103.174c0-14.187 11.607-25.794 25.794-25.794s25.793 11.607 25.793 25.794V232.14c0 14.186-11.607 25.794-25.793 25.794zM741.562 548.11c-10.318 0-19.345-3.868-27.083-11.606L579.063 404.957c-10.317-10.317-10.317-25.793 0-36.11 10.317-10.318 25.793-10.318 36.11 0l126.389 123.808L984.02 266.962c10.318-10.317 27.083-9.027 36.111 1.29 10.317 10.317 9.028 27.083-1.29 36.11L767.355 537.794c-7.738 7.738-16.766 10.318-25.793 10.318zM180.554 374.005h-12.897c-14.186 0-25.793-11.607-25.793-25.793s11.607-25.794 25.793-25.794h12.897c14.187 0 25.794 11.607 25.794 25.794s-11.607 25.793-25.794 25.793zM309.521 374.005h-12.896c-14.187 0-25.794-11.607-25.794-25.793s11.607-25.794 25.794-25.794h12.896c14.187 0 25.794 11.607 25.794 25.794s-11.607 25.793-25.794 25.793zM438.489 374.005h-12.897c-14.186 0-25.794-11.607-25.794-25.793s11.608-25.794 25.794-25.794h12.897c14.186 0 25.793 11.607 25.793 25.794s-11.607 25.793-25.793 25.793zM180.554 515.869h-12.897c-14.186 0-25.793-11.607-25.793-25.793s11.607-25.794 25.793-25.794h12.897c14.187 0 25.794 11.607 25.794 25.794s-11.607 25.793-25.794 25.793zM309.521 515.869h-12.896c-14.187 0-25.794-11.607-25.794-25.793s11.607-25.794 25.794-25.794h12.896c14.187 0 25.794 11.607 25.794 25.794s-11.607 25.793-25.794 25.793zM438.489 515.869h-12.897c-14.186 0-25.794-11.607-25.794-25.793s11.608-25.794 25.794-25.794h12.897c14.186 0 25.793 11.607 25.793 25.794s-11.607 25.793-25.793 25.793zM180.554 657.733h-12.897c-14.186 0-25.793-11.607-25.793-25.793s11.607-25.794 25.793-25.794h12.897c14.187 0 25.794 11.607 25.794 25.794s-11.607 25.793-25.794 25.793zM309.521 657.733h-12.896c-14.187 0-25.794-11.607-25.794-25.793s11.607-25.794 25.794-25.794h12.896c14.187 0 25.794 11.607 25.794 25.794s-11.607 25.793-25.794 25.793zM438.489 657.733h-12.897c-14.186 0-25.794-11.607-25.794-25.793s11.608-25.794 25.794-25.794h12.897c14.186 0 25.793 11.607 25.793 25.794s-11.607 25.793-25.793 25.793z"/></svg>